<?xml version="1.0" standalone="no"?>
<!DOCTYPE svg PUBLIC "-//W3C//DTD SVG 20010904//EN"
 "http://www.w3.org/TR/2001/REC-SVG-20010904/DTD/svg10.dtd">
<svg version="1.0" xmlns="http://www.w3.org/2000/svg"
 width="1023.000000pt" height="1280.000000pt" viewBox="0 0 1023.000000 1280.000000"
 preserveAspectRatio="xMidYMid meet">
<metadata>
Created by potrace 1.15, written by Peter Selinger 2001-2017
</metadata>
<g transform="translate(0.000000,1280.000000) scale(0.100000,-0.100000)"
fill="#000000" stroke="none">
<path d="M5050 12794 c-25 -2 -112 -8 -195 -14 -814 -60 -1523 -282 -2295
-718 -587 -331 -1056 -760 -1658 -1515 -182 -228 -246 -315 -260 -352 -6 -16
-79 -205 -163 -420 -246 -633 -309 -842 -378 -1266 -92 -560 -118 -879 -90
-1126 14 -128 37 -173 136 -260 171 -150 197 -191 253 -398 65 -245 102 -360
179 -557 97 -252 351 -1003 390 -1158 40 -157 61 -306 61 -436 1 -173 17 -454
30 -509 42 -177 71 -232 203 -381 161 -181 260 -463 427 -1209 49 -220 136
-600 194 -845 100 -426 206 -905 206 -933 0 -8 38 -24 98 -40 73 -21 215 -86
587 -267 502 -245 635 -300 776 -320 94 -14 377 -14 634 1 241 14 395 8 840
-33 261 -24 397 -31 585 -32 327 -1 388 11 839 165 322 109 759 214 1190 283
l152 25 67 64 c37 35 100 95 141 133 76 71 129 143 150 203 6 19 25 116 42
215 103 620 235 1187 554 2384 l85 317 55 48 c108 96 187 250 215 423 6 38 15
188 20 334 9 292 9 293 84 459 55 121 57 126 250 731 267 838 407 1210 579
1540 167 323 166 319 183 420 31 183 4 430 -81 715 -56 191 -122 372 -127 350
-3 -11 -5 3 -5 30 0 84 -11 125 -115 428 -163 480 -248 686 -419 1029 -340
681 -687 1124 -1199 1531 -137 109 -384 275 -525 354 -560 312 -1237 525
-1874 589 -136 14 -720 27 -821 18z m470 -235 c685 -48 1411 -220 1896 -449
388 -183 719 -422 1060 -764 386 -387 600 -699 914 -1331 110 -221 151 -317
270 -640 152 -410 224 -589 249 -619 9 -11 10 -16 4 -12 -20 11 -16 -39 7 -84
20 -40 27 -100 12 -100 -5 0 -17 9 -27 20 -10 11 -60 47 -112 81 -87 56 -186
106 -557 283 -76 36 -168 84 -203 106 -57 37 -82 45 -236 76 -642 129 -1278
204 -2182 255 -307 17 -1219 23 -1625 10 -923 -29 -1819 -104 -2461 -206 -746
-119 -1383 -307 -1916 -567 -102 -49 -125 -65 -138 -91 -8 -18 -42 -56 -74
-85 -37 -32 -64 -65 -71 -87 -13 -40 -16 -41 -50 -18 -14 9 -26 17 -27 18 -1
0 22 98 52 216 141 564 319 1044 568 1534 67 133 77 146 191 265 113 118 173
191 476 575 275 349 498 543 913 794 478 289 984 526 1407 660 492 155 1011
205 1660 160z m526 -3232 c9 -9 -14 -36 -48 -57 -27 -16 -26 -16 85 -38 291
-56 549 -67 661 -27 42 15 56 16 100 6 205 -48 478 -88 976 -141 506 -54 783
-101 1000 -167 63 -20 123 -38 133 -40 13 -4 17 1 17 21 0 38 -31 64 -87 71
-114 16 -147 45 -50 45 33 0 83 -12 137 -31 228 -83 307 -109 332 -109 49 0
47 -40 -3 -66 -16 -8 -29 -21 -29 -28 0 -25 70 -76 183 -132 149 -74 177 -96
177 -137 0 -20 -23 -79 -60 -152 -41 -81 -63 -137 -67 -171 l-5 -52 -82 38
c-505 233 -1301 409 -2246 494 -508 46 -845 60 -1460 60 -702 -1 -957 -13
-1620 -79 -660 -66 -996 -89 -1241 -84 -103 2 -120 0 -150 -18 -153 -95 -439
-157 -684 -151 -109 3 -123 1 -150 -18 -60 -42 -96 -54 -197 -66 l-103 -11
-290 -142 c-294 -144 -445 -226 -535 -291 -35 -25 -51 -32 -54 -22 -2 7 -16
54 -31 103 -25 86 -106 259 -147 318 l-20 28 23 26 c42 44 229 163 346 219 62
30 191 86 285 125 164 67 170 70 113 64 -33 -4 -103 -18 -154 -31 -331 -86
-599 -264 -702 -466 -44 -85 -65 -242 -35 -254 16 -6 116 34 116 47 0 15 31
39 51 39 18 0 20 -6 17 -52 -2 -41 -6 -52 -18 -49 -51 14 -76 12 -95 -9 l-20
-22 54 -46 c228 -199 579 -371 1001 -490 384 -109 856 -182 1675 -257 750 -68
868 -77 991 -70 101 6 126 5 152 -9 29 -15 59 -52 50 -62 -3 -2 -78 3 -169 11
-90 9 -411 33 -714 55 -642 46 -814 61 -1100 95 -640 77 -1161 197 -1581 365
-309 124 -481 249 -520 377 -21 67 -19 186 5 262 79 254 423 496 968 682 541
184 1108 281 2183 373 162 14 453 39 646 56 194 16 434 39 534 50 144 16 249
20 499 20 190 0 322 -4 331 -10 36 -24 -22 -30 -300 -30 -245 0 -299 -3 -375
-19 -124 -27 -275 -39 -585 -46 -418 -10 -601 -22 -801 -56 -228 -38 -259 -52
-259 -117 l0 -35 53 7 c28 4 112 18 186 33 133 25 240 28 324 7 33 -8 38 13 6
24 -19 7 -16 10 23 25 51 20 148 41 263 58 50 7 356 14 825 19 792 8 1004 18
998 49 -2 11 -16 17 -45 19 -47 4 -65 19 -57 50 5 17 15 22 58 25 77 7 304 2
312 -6z m1654 -112 c280 -30 643 -94 900 -159 87 -22 91 -24 49 -25 -66 -1
-330 33 -684 89 -423 67 -604 89 -778 97 -94 4 -143 9 -135 15 19 14 477 1
648 -17z m2320 -521 c23 -80 25 -122 6 -146 -7 -10 -15 -18 -18 -18 -3 0 -8
33 -11 74 -6 78 -25 129 -53 140 -9 4 -14 9 -11 13 4 3 13 1 20 -6 11 -9 17
-8 27 4 7 9 15 14 17 12 2 -3 12 -35 23 -73z m-9773 -126 c-9 -71 -28 -126
-53 -153 -36 -39 -44 -31 -29 28 7 28 24 94 37 145 l23 93 14 -33 c8 -20 11
-51 8 -80z m9444 76 c91 -45 161 -110 189 -175 38 -90 22 -87 -87 15 -96 91
-192 196 -179 196 4 0 38 -16 77 -36z m-4402 -24 c10 -5 26 -30 35 -55 21 -53
36 -49 54 14 10 32 18 40 44 45 38 7 75 -14 83 -47 2 -12 6 -67 7 -123 3 -112
18 -149 47 -120 13 14 14 23 2 73 -18 76 -25 163 -14 173 30 30 506 55 756 40
247 -15 309 -25 385 -67 71 -39 92 -38 92 7 0 37 9 38 48 5 48 -40 85 -49 121
-31 68 36 128 12 114 -45 l-6 -24 22 22 c42 43 101 66 171 65 80 0 144 -23
136 -49 -2 -10 -28 -151 -56 -313 -89 -517 -130 -715 -184 -891 l-26 -85 -402
-17 c-222 -10 -578 -26 -793 -37 -576 -28 -965 -40 -1380 -43 l-370 -2 -3 83
-3 82 29 0 c24 0 32 -7 53 -47 21 -41 29 -48 58 -51 l34 -4 -31 37 c-96 109
-142 299 -162 674 -6 108 -15 280 -20 383 -6 103 -13 206 -16 230 l-6 43 85 1
84 0 13 -80 c7 -45 15 -133 19 -196 l6 -115 20 30 c22 33 24 77 10 256 l-8
107 99 -2 c54 0 144 3 200 8 l100 9 0 -81 c-1 -87 5 -102 30 -81 13 11 15 29
12 99 -2 72 -1 84 12 80 8 -2 59 -5 112 -5 85 0 99 -2 120 -22 l23 -22 13 29
c18 39 42 45 101 24 41 -15 52 -16 65 -5 9 7 16 19 16 26 0 11 10 20 28 24 2
1 11 -3 21 -9z m-1246 -232 c4 -73 21 -272 39 -443 39 -381 44 -638 14 -752
-16 -63 -21 -73 -41 -73 -36 0 -87 42 -114 94 -24 46 -26 62 -32 245 -8 226
-49 534 -115 848 -42 203 -36 213 137 213 l106 0 6 -132z m3651 116 c11 -28 6
-139 -9 -230 -9 -49 -38 -173 -65 -275 -51 -188 -70 -298 -89 -489 -6 -58 -15
-122 -21 -143 -24 -83 -107 -137 -187 -122 -33 6 -34 7 -28 48 3 23 14 119 26
212 39 321 102 656 170 903 l31 112 83 0 c66 0 84 -3 89 -16z m220 -5 c37 -12
69 -18 87 -14 l29 7 0 -64 0 -63 20 32 c25 42 54 48 115 27 55 -19 125 -23
168 -11 l27 7 0 -102 0 -103 24 25 c13 14 33 57 45 97 12 40 26 75 31 78 14 9
68 -22 81 -47 20 -36 12 -109 -25 -235 -35 -119 -47 -225 -27 -237 15 -9 41
69 76 229 36 162 57 225 76 225 41 0 296 -68 352 -94 l68 -31 3 -76 c3 -63 14
-105 31 -127 1 -1 10 0 19 4 21 8 20 26 -4 74 -20 40 -26 76 -12 83 23 12 103
-21 188 -79 53 -36 106 -69 120 -74 21 -8 24 -16 24 -57 0 -27 9 -80 20 -118
27 -95 26 -101 -17 -116 -21 -7 -87 -34 -148 -62 -479 -215 -514 -223 -1346
-331 -108 -15 -238 -34 -288 -45 -50 -10 -91 -16 -91 -13 0 3 27 143 60 311
122 621 194 921 219 921 9 0 43 -9 75 -21z m-4245 -122 c40 -144 41 -279 5
-402 -5 -16 -4 -18 7 -7 24 22 49 14 64 -22 22 -52 33 -138 55 -433 11 -149
24 -292 29 -316 l8 -45 -41 -6 c-50 -8 -209 8 -352 34 -161 30 -251 35 -302
17 l-43 -15 -14 29 c-8 15 -15 37 -15 48 0 20 0 20 -36 -1 -32 -19 -43 -20
-117 -12 -45 5 -128 9 -184 8 l-103 0 0 58 0 59 -35 -36 -34 -37 -73 7 c-53 5
-85 3 -115 -8 l-43 -15 0 84 c0 83 -6 98 -29 70 -8 -9 -10 -35 -5 -80 4 -38 3
-66 -2 -66 -20 0 -83 51 -104 85 -33 54 -60 43 -60 -26 0 -16 -3 -29 -8 -29
-4 0 -39 9 -77 20 -39 11 -151 39 -250 61 -99 22 -215 49 -257 61 l-77 21 -15
51 c-53 185 -116 470 -116 527 0 27 3 29 38 29 62 0 139 24 317 95 163 66 173
69 256 70 80 0 89 -2 138 -32 l51 -32 46 44 c70 66 180 117 268 123 60 4 75 1
96 -16 l24 -20 36 23 c67 41 100 47 305 54 192 6 202 7 257 34 65 32 91 27
102 -19 10 -39 36 -12 36 37 l0 38 56 -21 c57 -22 58 -22 127 7 15 6 17 1 17
-39 0 -34 4 -48 16 -53 27 -10 49 12 55 56 6 46 20 61 49 54 14 -4 26 -34 49
-116z m6440 -17 c23 -78 33 -140 22 -140 -5 0 -20 9 -34 21 -31 23 -43 64 -52
169 l-6 75 26 -30 c14 -16 34 -59 44 -95z m-464 -30 c23 -25 17 -53 -35 -168
-22 -49 -40 -103 -40 -118 l0 -29 -20 25 c-29 37 -24 79 16 156 25 45 37 82
38 111 1 47 13 54 41 23z m140 -2 c57 -45 69 -122 34 -233 -14 -47 -33 -80
-61 -111 -36 -39 -46 -45 -77 -42 -34 3 -36 5 -39 43 -2 22 8 78 23 125 14 47
35 120 48 162 12 43 27 78 33 78 6 0 24 -10 39 -22z m201 -59 c23 -44 17 -122
-16 -221 -16 -49 -30 -91 -30 -94 0 -2 11 -4 25 -4 19 0 28 8 39 34 16 39 28
48 51 40 10 -4 14 -13 10 -23 -18 -45 -35 -162 -45 -303 -20 -296 -69 -379
-306 -516 -212 -123 -410 -234 -474 -267 -153 -77 -387 -133 -865 -205 -148
-22 -380 -65 -515 -95 -165 -38 -285 -59 -369 -65 -134 -11 -145 -8 -138 38 2
12 3 22 1 22 -2 0 -25 -13 -52 -30 -181 -111 -423 -142 -1212 -155 -195 -3
-566 -13 -825 -21 -705 -24 -1553 -14 -2200 26 -1004 63 -1415 149 -2230 469
-365 144 -440 183 -557 292 -55 51 -58 57 -68 119 -42 282 -47 470 -11 470 27
0 59 -36 96 -109 54 -108 119 -148 430 -266 105 -40 199 -76 210 -80 15 -5 12
1 -10 21 l-30 27 55 -7 c179 -23 379 -61 895 -170 476 -101 671 -131 1085
-170 726 -69 1251 -96 1975 -103 810 -8 1356 14 2044 84 56 5 62 8 46 19 -53
39 -269 55 -470 34 -90 -9 -344 -27 -790 -55 -132 -9 -422 -18 -645 -21 -431
-5 -445 -3 -265 39 84 19 125 21 586 23 573 3 747 13 1584 99 132 13 364 36
515 50 535 49 803 93 1199 196 612 158 995 356 1135 587 40 66 74 163 82 230
12 107 14 114 30 101 9 -7 22 -25 30 -40z m-8734 -220 c26 -14 45 -60 58 -145
6 -38 25 -114 42 -169 32 -105 49 -245 30 -245 -23 0 -82 63 -106 113 -13 29
-38 122 -55 207 -18 85 -38 174 -45 197 -8 23 -12 44 -8 47 9 10 62 7 84 -5z
m-137 -183 c26 -54 45 -150 45 -230 0 -47 -1 -48 -26 -42 -14 4 -77 32 -139
62 -87 42 -129 57 -175 61 -33 3 -60 9 -60 13 0 25 55 66 146 111 57 28 114
63 127 79 20 25 24 26 40 12 9 -8 28 -38 42 -66z m8655 -789 c0 -64 -40 -190
-124 -391 -117 -280 -129 -317 -206 -616 -73 -283 -114 -419 -136 -447 -12
-16 -15 -16 -24 -3 -5 8 -10 30 -10 48 0 34 -8 40 -28 20 -17 -17 -15 -46 8
-113 11 -32 20 -60 20 -62 0 -1 -16 -3 -35 -3 -76 0 -103 -82 -35 -105 26 -9
36 -18 38 -38 3 -24 1 -26 -36 -25 -22 0 -46 -3 -52 -7 -7 -4 -28 -42 -47 -83
-35 -74 -35 -76 -23 -134 53 -250 -126 -672 -323 -764 l-52 -24 -5 31 -5 31
-39 -48 c-90 -111 -232 -200 -338 -211 l-56 -6 24 49 c27 56 37 106 58 289 14
119 36 206 61 245 6 9 34 35 62 59 70 58 73 72 29 121 -27 30 -36 49 -36 74 0
57 26 161 84 339 31 93 70 233 87 310 39 173 84 306 199 587 116 283 155 391
181 493 l21 84 143 47 c152 50 367 151 500 234 44 28 83 51 88 51 4 1 7 -14 7
-32z m-9080 -212 c180 -63 330 -146 404 -224 17 -17 35 -31 42 -31 6 0 24 16
39 36 24 32 30 35 40 21 6 -9 24 -19 39 -23 33 -8 52 -35 62 -87 l6 -38 27 24
c14 14 36 30 48 36 52 27 131 4 190 -55 l44 -45 105 12 c77 8 132 8 211 -1
104 -10 344 -62 372 -79 25 -16 221 -904 352 -1591 34 -179 91 -497 128 -708
66 -377 67 -383 45 -378 -12 3 -145 30 -295 60 -296 59 -418 94 -546 157 -101
50 -207 144 -247 220 -27 51 -61 88 -80 89 -4 0 -5 -8 -1 -17 14 -34 24 -98
18 -121 -5 -22 -8 -20 -57 26 -66 62 -88 74 -156 81 -54 6 -55 6 -61 43 -8 52
-23 65 -82 73 -29 4 -58 11 -66 15 -8 4 -40 95 -72 201 -427 1445 -551 1813
-758 2266 -28 62 -51 114 -51 117 0 8 200 -44 300 -79z m8124 -187 c-9 -18
-34 -58 -54 -88 -56 -83 -59 -90 -75 -202 -40 -272 -105 -541 -259 -1078 -168
-587 -203 -738 -215 -921 -13 -206 -26 -246 -110 -326 -35 -35 -69 -63 -76
-63 -33 0 -47 57 -20 84 19 19 19 36 0 36 -16 0 -30 -27 -60 -111 -9 -26 -24
-49 -33 -52 -9 -2 -69 -20 -132 -40 -166 -51 -319 -79 -756 -141 -214 -30
-418 -64 -454 -75 -90 -28 -204 -51 -251 -51 -49 0 -75 13 -92 46 l-14 26 -16
-26 c-28 -42 -93 -69 -169 -70 -36 -1 -69 2 -72 5 -4 3 10 167 29 365 107
1099 180 1640 303 2244 l28 134 161 2 c179 3 355 20 693 65 131 17 296 33 395
36 142 5 181 10 235 29 181 64 416 116 730 163 113 17 216 32 230 34 14 3 35
5 48 6 22 1 22 1 6 -31z m-6084 -289 c52 -4 96 -8 98 -8 1 -1 2 -31 2 -67 0
-81 21 -84 33 -4 4 30 9 55 11 57 1 2 37 -6 78 -16 62 -16 348 -41 470 -41 15
0 18 -9 17 -54 -1 -29 2 -59 5 -65 4 -6 25 -11 47 -11 44 0 48 11 28 69 -8 23
-8 35 1 46 20 24 42 4 77 -72 45 -98 73 -97 73 3 0 31 4 44 14 44 25 0 44 -28
57 -85 15 -67 32 -86 57 -62 15 16 15 20 -2 65 -38 96 -33 122 25 122 33 0 53
-22 76 -84 20 -54 59 -91 86 -80 33 12 15 84 -31 121 -13 11 -11 14 12 22 85
33 239 31 306 -4 36 -19 70 -61 70 -89 1 -19 2 -18 16 6 27 50 80 68 237 79
78 5 149 11 159 14 10 3 27 7 37 11 18 4 20 -1 23 -48 l3 -53 30 53 c26 45 33
51 55 47 42 -8 89 -8 242 0 l147 8 33 -34 c20 -20 41 -32 53 -30 11 1 67 23
125 49 127 55 213 66 274 35 l37 -19 -1 -295 c-1 -445 -27 -1142 -83 -2199
l-12 -225 -215 -12 c-488 -26 -1121 -13 -1830 37 -157 11 -355 25 -440 31 -85
6 -158 14 -161 17 -6 7 -31 149 -155 872 -86 500 -314 1855 -314 1865 0 4 8 4
18 0 9 -4 60 -11 112 -16z m3418 -104 c2 -41 8 -64 19 -72 13 -10 14 -19 5
-55 -19 -76 -50 -277 -82 -528 -47 -373 -67 -483 -108 -575 l-35 -80 9 -120
c18 -254 8 -311 -64 -360 -20 -14 -37 -23 -39 -21 -5 5 43 864 63 1111 17 228
43 442 76 627 l22 127 41 4 c90 9 90 9 93 -58z m-4991 -1860 c25 -33 58 -83
74 -111 27 -47 39 -57 167 -127 150 -83 286 -149 487 -234 298 -127 682 -256
795 -267 41 -4 87 -14 102 -22 28 -14 54 -51 44 -61 -8 -9 -562 130 -743 186
-468 146 -821 336 -932 502 -35 52 -91 195 -91 231 0 17 46 -29 97 -97z m7598
-221 c-269 -155 -498 -247 -937 -380 -49 -14 -88 -31 -88 -37 0 -20 33 -47 58
-47 14 0 57 19 94 41 63 38 77 43 166 50 168 15 248 46 456 177 156 97 222
128 241 112 8 -6 17 -20 20 -31 8 -25 56 -26 77 -1 9 9 22 36 29 59 14 50 42
83 69 83 25 0 25 -12 -1 -91 -57 -175 -158 -300 -334 -414 -178 -116 -249
-144 -985 -378 -309 -99 -319 -101 -460 -102 -102 0 -131 3 -158 18 -18 10
-36 25 -39 33 -11 30 58 147 131 219 77 76 157 122 261 150 66 17 236 21 297
6 36 -8 36 -8 26 15 -8 17 -8 27 1 38 9 11 8 17 -4 30 -22 21 -42 20 -109 -5
-62 -24 -79 -20 -50 12 53 58 154 96 372 139 233 46 245 50 532 190 241 118
340 158 395 159 11 1 -16 -20 -60 -45z m-7532 -52 c143 -106 322 -206 429
-241 l38 -12 -16 -31 c-23 -45 -7 -55 121 -74 125 -18 170 -36 189 -73 23 -49
17 -56 -52 -55 -35 1 -68 6 -74 12 -20 20 -28 13 -28 -25 1 -86 64 -162 149
-182 49 -11 77 1 105 44 21 32 20 67 -4 144 -11 35 -18 66 -16 68 2 3 30 0 61
-7 53 -11 80 -23 259 -119 44 -23 86 -39 94 -36 26 10 255 6 333 -5 94 -14
181 -32 399 -80 407 -90 505 -99 778 -70 165 18 248 21 442 18 l239 -3 -29 23
c-21 17 -30 32 -30 53 l0 29 115 0 c91 0 117 -3 121 -14 8 -21 -13 -54 -49
-77 l-32 -20 585 4 c433 4 629 9 755 21 289 28 549 70 720 118 107 30 163 34
171 14 10 -26 -14 -65 -81 -130 -34 -33 -59 -66 -57 -75 1 -9 16 -46 33 -82
23 -53 27 -72 20 -92 -5 -14 -14 -28 -19 -31 -13 -8 -324 -41 -612 -66 -1260
-108 -2395 -102 -3165 16 -160 24 -727 136 -777 153 -14 5 -62 34 -106 64 -95
65 -97 66 -331 116 -209 46 -265 68 -413 170 -150 102 -220 161 -246 208 -21
39 -29 75 -61 265 -6 37 -14 74 -17 83 -9 23 2 19 59 -23z m4622 -157 c0 -116
-3 -169 -11 -172 -20 -7 -26 65 -19 209 5 95 11 138 19 135 7 -2 11 -57 11
-172z m1329 -287 c11 -15 12 -25 5 -34 -11 -14 -77 -29 -169 -39 -30 -4 -95
-15 -145 -25 -386 -80 -939 -135 -1510 -150 -329 -8 -352 -8 -375 9 -14 10
-26 27 -28 38 -3 19 2 20 175 15 434 -11 1127 53 1763 163 135 24 250 43 257
44 6 0 19 -9 27 -21z m1439 -345 c-151 -536 -264 -954 -329 -1213 -56 -221
-67 -281 -84 -455 -21 -212 -42 -331 -64 -360 -13 -17 -14 -17 -31 8 -9 15
-23 27 -31 27 -17 0 -28 -42 -20 -78 23 -94 28 -136 23 -207 -9 -136 -56 -237
-164 -355 l-50 -54 -7 124 c-6 109 6 492 19 620 3 25 10 95 16 155 26 263 66
546 163 1155 31 190 67 423 81 519 14 96 26 175 28 176 1 0 38 21 82 46 97 56
122 63 159 44 26 -14 29 -13 51 13 14 15 25 30 25 33 0 12 87 67 130 82 97 34
97 53 3 -280z m-5088 202 c166 -24 293 -37 377 -38 137 -2 154 -14 56 -38 -94
-22 -342 0 -723 66 -114 19 -219 36 -233 36 -27 1 -27 1 3 10 56 15 269 1 520
-36z m-1900 -53 c63 -30 120 -86 131 -125 5 -22 9 -23 52 -16 117 18 258 -44
304 -134 l20 -40 28 32 c35 37 43 38 140 7 41 -13 170 -43 285 -66 206 -42
373 -91 381 -114 7 -19 53 -294 79 -466 34 -236 56 -413 130 -1050 74 -644 83
-715 127 -1007 17 -117 28 -216 24 -220 -3 -4 -45 0 -91 9 -154 30 -362 134
-578 289 -81 58 -100 68 -116 59 -57 -30 -134 0 -241 94 -41 36 -89 71 -107
78 l-32 12 -50 205 c-28 113 -98 413 -156 666 -199 863 -299 1229 -447 1639
l-51 139 23 19 c32 26 76 22 145 -10z m2929 -23 c-32 -36 -86 -42 -245 -29
-81 7 -156 10 -168 7 -30 -8 -26 2 7 14 15 6 106 15 203 19 97 4 184 12 195
18 26 15 31 -4 8 -29z m3470 -146 c-4 -21 -84 -598 -113 -823 -70 -531 -138
-1218 -172 -1720 -6 -96 -15 -178 -18 -182 -4 -4 -130 -37 -281 -72 -151 -36
-437 -103 -635 -151 -493 -117 -946 -217 -954 -210 -13 14 -4 997 12 1365 23
500 22 705 -3 904 -33 260 -25 389 31 498 l21 41 56 -7 c32 -4 118 -9 192 -12
122 -6 146 -4 245 19 61 14 140 35 178 46 l67 20 0 -47 1 -47 20 37 c26 51 50
65 155 87 49 10 98 22 109 26 19 6 20 2 18 -37 -3 -37 -2 -41 9 -24 58 85 84
96 213 96 102 0 145 13 165 50 6 11 17 20 25 20 18 0 55 -48 55 -71 0 -11 4
-19 9 -19 16 0 29 24 36 67 8 50 20 61 66 64 51 4 59 -5 60 -69 1 -56 1 -56
12 -24 36 97 135 157 302 182 93 14 124 12 119 -7z m-4627 -322 c138 -35 211
-39 254 -14 27 16 29 16 50 -2 32 -30 42 -53 59 -138 15 -75 16 -77 35 -63 20
14 20 15 1 63 -10 26 -20 62 -23 79 -5 29 -2 33 31 44 20 6 44 9 55 5 20 -6
41 -52 41 -91 0 -36 21 -74 41 -74 29 0 33 19 13 76 -16 49 -17 56 -3 69 14
14 21 14 75 0 67 -18 221 -21 465 -10 235 11 367 -15 435 -86 15 -16 38 -29
51 -29 23 0 30 13 35 75 l3 30 318 3 c174 1 317 0 317 -2 0 -3 10 -76 22 -163
22 -155 23 -176 23 -1173 1 -1043 4 -1134 44 -1380 5 -30 7 -57 4 -60 -10 -11
-904 -2 -1332 14 -250 9 -564 16 -697 16 l-242 0 -6 38 c-3 20 -18 131 -31
247 -14 116 -55 444 -90 730 -103 836 -163 1349 -199 1709 l-12 129 70 -6 c39
-3 126 -19 193 -36z"/>
<path d="M4343 9105 c-186 -14 -236 -22 -228 -36 4 -5 88 -9 200 -9 154 0 194
3 198 14 3 7 21 16 41 20 19 4 38 11 41 16 8 12 -42 11 -252 -5z"/>
<path d="M2480 9053 c-58 -11 -239 -55 -425 -103 -160 -42 -222 -53 -310 -58
-79 -4 -113 -9 -121 -20 -5 -8 -31 -16 -57 -19 -44 -5 -47 -8 -47 -34 0 -44
49 -71 117 -66 41 3 70 14 130 51 43 26 85 47 93 47 8 -1 37 -4 63 -7 71 -9
101 0 212 62 113 62 126 63 206 14 65 -40 94 -46 124 -26 37 24 31 32 -27 35
-50 2 -79 14 -66 26 14 14 193 35 301 35 64 0 117 4 117 8 0 5 -19 19 -42 32
-37 21 -58 25 -143 26 -55 1 -111 0 -125 -3z"/>
<path d="M5680 8483 c0 -38 -7 -95 -15 -126 -19 -72 -19 -67 4 -67 33 0 51 38
51 110 0 68 -14 135 -30 145 -6 4 -10 -21 -10 -62z"/>
<path d="M5850 8449 c0 -117 15 -158 59 -159 11 0 13 17 7 92 -7 93 -26 152
-52 162 -11 4 -14 -12 -14 -95z"/>
<path d="M5312 8364 c-3 -94 5 -114 45 -114 19 0 24 4 19 16 -3 9 -6 44 -6 79
0 53 -4 68 -22 85 -12 11 -24 20 -28 20 -3 0 -7 -39 -8 -86z"/>
<path d="M4810 7875 c0 -124 3 -225 8 -225 21 0 72 43 78 65 13 50 -4 161 -40
273 -20 61 -39 112 -42 112 -2 0 -4 -101 -4 -225z"/>
<path d="M8296 8017 c-15 -89 -36 -183 -46 -209 -23 -61 -8 -62 30 -2 50 79
65 138 65 251 0 160 -16 147 -49 -40z"/>
<path d="M8725 8168 c-14 -46 -35 -149 -35 -175 0 -17 8 -41 18 -53 17 -21 17
-21 18 17 1 21 12 69 24 106 19 55 21 72 12 92 -12 27 -30 33 -37 13z"/>
<path d="M8911 8108 c-26 -89 -26 -109 -3 -138 l18 -23 22 74 c25 82 27 111
12 140 -18 32 -26 22 -49 -53z"/>
<path d="M9760 7760 c-48 -35 -269 -140 -416 -199 -360 -143 -820 -268 -1559
-422 l-280 -59 110 4 c80 3 171 17 335 51 252 53 389 63 466 34 l42 -16 6 38
c4 26 15 44 32 56 43 28 179 63 349 89 267 42 371 70 448 120 25 17 37 20 37
11 0 -21 -40 -52 -104 -81 -32 -14 -57 -28 -54 -31 6 -6 131 39 203 75 131 64
277 176 370 284 51 60 56 76 15 46z"/>
<path d="M9742 7502 c-65 -21 -102 -54 -102 -93 l0 -28 53 15 c59 17 107 61
107 99 0 14 -1 25 -2 24 -2 0 -27 -8 -56 -17z"/>
<path d="M6775 6639 c-37 -9 -85 -43 -85 -60 0 -4 21 -12 47 -17 36 -8 55 -7
79 3 32 13 64 49 64 72 0 15 -45 16 -105 2z"/>
<path d="M1490 5961 c0 -25 44 -121 56 -121 29 0 65 25 89 61 l25 39 -45 0
c-25 0 -62 7 -82 15 -42 18 -43 18 -43 6z"/>
<path d="M5011 5314 c-3 -125 4 -144 46 -144 18 0 23 4 19 18 -3 9 -10 53 -16
97 -11 70 -32 145 -42 145 -2 0 -5 -52 -7 -116z"/>
<path d="M5412 5257 c-3 -88 0 -116 12 -132 11 -15 17 -17 26 -8 15 14 40 116
40 161 0 47 -26 92 -53 92 -21 0 -22 -4 -25 -113z"/>
<path d="M8585 3993 c-25 -6 -55 -32 -55 -47 0 -6 9 -17 20 -24 25 -15 25 -33
0 -82 -20 -40 -20 -40 -1 -40 27 0 88 55 111 100 11 21 31 51 45 69 l27 31
-64 -1 c-34 -1 -72 -4 -83 -6z"/>
<path d="M7360 3541 c-30 -9 -64 -23 -75 -29 -18 -10 -17 -11 12 -12 43 0 63
-23 63 -71 l0 -39 115 0 114 0 6 33 c21 110 -89 165 -235 118z"/>
<path d="M4310 3313 c-34 -18 -35 -20 -38 -86 -3 -65 -2 -67 25 -78 15 -7 53
-14 83 -16 64 -5 108 17 140 69 29 48 25 64 -25 93 -59 35 -138 43 -185 18z"/>
<path d="M2475 2425 c3 -11 15 -81 26 -155 11 -74 27 -160 36 -190 17 -53 75
-132 88 -119 9 10 -59 284 -89 360 -24 60 -77 149 -61 104z"/>
<path d="M6376 2263 c-3 -10 -10 -52 -17 -93 -6 -41 -17 -90 -25 -109 -18 -42
-18 -41 4 -41 23 0 57 35 71 73 6 16 11 53 11 82 0 76 -29 135 -44 88z"/>
<path d="M6680 1499 c-32 -58 -21 -174 21 -227 l18 -23 15 52 c18 60 21 151 6
179 -6 11 -19 24 -30 30 -15 8 -21 6 -30 -11z"/>
<path d="M7420 766 c0 -71 3 -85 17 -91 12 -4 25 2 40 20 44 51 22 155 -33
155 -24 0 -24 -2 -24 -84z"/>
<path d="M6790 659 c0 -106 2 -120 16 -117 36 7 56 52 56 123 -1 73 -19 115
-52 115 -19 0 -20 -7 -20 -121z"/>
</g>
</svg>
