<svg id="Capa_1" enable-background="new 0 0 512.023 512.023" height="512" viewBox="0 0 512.023 512.023" width="512" xmlns="http://www.w3.org/2000/svg"><g><path d="m374.686 190.481c6.656 10.539 22.465 8.808 26.755-2.813l17.972-48.667 50.28-12.786c12.027-3.058 15.339-18.625 5.593-26.314l-40.732-32.131 3.377-51.77c.809-12.384-12.972-20.344-23.298-13.451l-43.146 28.81-48.192-19.209c-11.524-4.597-23.358 6.049-19.992 18l14.067 49.937-33.161 39.898c-7.933 9.541-1.464 24.085 10.941 24.576l51.839 2.053zm-26.301-110.938-7.965-28.273 27.285 10.875c4.585 1.829 9.776 1.283 13.884-1.459l24.428-16.311-1.912 29.31c-.322 4.927 1.802 9.696 5.678 12.753l23.062 18.191-28.467 7.239c-4.785 1.217-8.665 4.71-10.375 9.341l-10.175 27.554-15.681-24.836c-2.636-4.174-7.157-6.785-12.09-6.98l-29.35-1.162 18.775-22.589c3.156-3.795 4.241-8.901 2.903-13.653z"/><path d="m497.012 242.023h-121c-8.284 0-15 6.716-15 15v45h-105c-8.284 0-15 6.716-15 15v45h-105c-8.284 0-15 6.716-15 15v45h-106c-8.284 0-15 6.716-15 15v60c0 8.284 6.716 15 15 15h482c8.284 0 15-6.716 15-15v-240c0-8.284-6.716-15-15-15zm-467 210h91v30h-91zm121-60h90v90h-90zm120-60h90v150h-90zm211 150h-91v-210h91z"/><path d="m301.012 197.023c0 8.271-6.729 15-15 15h-60c-24.813 0-45 20.187-45 45 0 8.271-6.729 15-15 15h-60c-24.813 0-45 20.187-45 45 0 8.284 6.716 15 15 15s15-6.716 15-15c0-8.271 6.729-15 15-15h60c24.813 0 45-20.187 45-45 0-8.271 6.729-15 15-15h60c24.813 0 45-20.187 45-45 0-8.284-6.716-15-15-15s-15 6.716-15 15z"/></g></svg>