<svg height="550pt" viewBox="-17 -55 550.66536 550" width="550pt" xmlns="http://www.w3.org/2000/svg"><path d="m127.96875-2.207031h59.304688v30.511719c-16.921876 5.523437-27.316407 22.527343-24.523438 40.105468 2.800781 17.578125 17.957031 30.515625 35.757812 30.515625 17.800782 0 32.960938-12.9375 35.757813-30.515625s-7.597656-34.582031-24.519531-40.105468v-30.511719h189.769531v30.511719c-16.921875 5.523437-27.316406 22.527343-24.519531 40.105468s17.953125 30.515625 35.753906 30.515625 32.960938-12.9375 35.757812-30.515625c2.796876-17.578125-7.597656-34.582031-24.519531-40.105468v-30.511719h55.558594c21.363281.027343 38.675781 17.339843 38.703125 38.703125v91.140625h-426.984375v-91.140625c.027344-21.363282 17.339844-38.675782 38.703125-38.703125zm0 0"/><path d="m212.242188 62.714844c0 7.585937-6.148438 13.734375-13.734376 13.734375-7.582031 0-13.730468-6.148438-13.730468-13.734375 0-7.582032 6.148437-13.734375 13.730468-13.734375 7.585938 0 13.734376 6.152343 13.734376 13.734375zm0 0"/><path d="m424.484375 62.714844c0 7.585937-6.148437 13.734375-13.734375 13.734375-7.582031 0-13.730469-6.148438-13.730469-13.734375 0-7.582032 6.148438-13.734375 13.730469-13.734375 7.585938 0 13.734375 6.152343 13.734375 13.734375zm0 0"/><path d="m89.265625 150.109375v102.375h107.121094l-13.921875-13.917969c-10.238282-10.242187-10.238282-26.84375 0-37.078125 10.242187-10.242187 26.84375-10.242187 37.082031 0l58.679687 58.679688c10.238282 10.234375 10.238282 26.835937 0 37.078125l-58.679687 58.679687c-10.238281 10.234375-26.839844 10.234375-37.082031 0-10.238282-10.242187-10.238282-26.84375 0-37.082031l13.921875-13.921875h-107.121094v93.636719c.027344 21.363281 17.339844 38.679687 38.703125 38.703125h349.578125c21.363281-.023438 38.675781-17.339844 38.703125-38.703125v-248.449219zm0 0"/><path d="m267.628906 270.757812-58.679687-58.679687c-4.386719-4.386719-11.5-4.386719-15.886719 0-4.390625 4.390625-4.390625 11.507813 0 15.890625l39.496094 39.5h-221.320313c-6.207031 0-11.238281 5.03125-11.238281 11.234375 0 6.207031 5.03125 11.238281 11.238281 11.238281h221.320313l-39.496094 39.496094c-4.390625 4.390625-4.390625 11.503906 0 15.890625 4.386719 4.386719 11.5 4.386719 15.886719 0l58.679687-58.679687c4.390625-4.386719 4.390625-11.5 0-15.890626zm0 0"/></svg>